<svg width="32" height="32" viewBox="0 0 32 32" fill="none" xmlns="http://www.w3.org/2000/svg">
<path d="M23.4168 1.33948L19.7138 1.33337C15.5536 1.33337 12.8651 4.16683 12.8651 8.55235V11.8808H9.14183C8.8201 11.8808 8.55957 12.1487 8.55957 12.4792V17.3017C8.55957 17.6322 8.8204 17.8998 9.14183 17.8998H12.8651V30.0686C12.8651 30.3991 13.1256 30.6667 13.4473 30.6667H18.3051C18.6268 30.6667 18.8873 30.3988 18.8873 30.0686V17.8998H23.2406C23.5624 17.8998 23.8229 17.6322 23.8229 17.3017L23.8247 12.4792C23.8247 12.3205 23.7632 12.1685 23.6542 12.0562C23.5451 11.9439 23.3966 11.8808 23.2421 11.8808H18.8873V9.05922C18.8873 7.70307 19.2019 7.01462 20.9217 7.01462L23.4162 7.01371C23.7376 7.01371 23.9982 6.74577 23.9982 6.41558V1.9376C23.9982 1.60772 23.7379 1.34009 23.4168 1.33948Z" fill="#787A80"/>
</svg>
