<svg width="32" height="32" viewBox="0 0 32 32" fill="none" xmlns="http://www.w3.org/2000/svg">
<path d="M30 7.69665C28.9694 8.1339 27.8637 8.43043 26.7019 8.56282C27.8881 7.88261 28.7962 6.80371 29.2266 5.52206C28.1138 6.15198 26.8855 6.60938 25.5768 6.85733C24.5287 5.7868 23.038 5.12 21.3845 5.12C18.2124 5.12 15.6404 7.58275 15.6404 10.6185C15.6404 11.049 15.6911 11.4695 15.7891 11.8716C11.016 11.6421 6.78357 9.45243 3.95085 6.12517C3.45568 6.93605 3.17399 7.8809 3.17399 8.8895C3.17399 10.7977 4.18881 12.4814 5.72854 13.4665C4.78719 13.4364 3.90185 13.1884 3.12677 12.7763V12.845C3.12677 15.5087 5.10741 17.7319 7.73365 18.2379C7.25248 18.3619 6.74509 18.4306 6.22018 18.4306C5.84927 18.4306 5.49058 18.3954 5.13889 18.3284C5.87023 20.5147 7.99087 22.1046 10.5034 22.1482C8.53851 23.6225 6.06097 24.4987 3.36999 24.4987C2.90634 24.4987 2.44965 24.4719 2 24.4233C4.54229 25.9864 7.56048 26.8978 10.8044 26.8978C21.3706 26.8978 27.1463 18.5177 27.1463 11.2501L27.1271 10.5381C28.2556 9.76736 29.2319 8.79903 30 7.69665Z" fill="#787A80"/>
</svg>
