<svg width="32" height="32" viewBox="0 0 32 32" fill="none" xmlns="http://www.w3.org/2000/svg">
<path d="M29.3337 15.6566C29.3337 22.8308 23.4732 28.6465 16.2427 28.6465C13.9473 28.6465 11.7908 28.0598 9.9147 27.0302L2.66699 29.3333L5.02996 22.3638C3.83796 20.4065 3.15144 18.1108 3.15144 15.6566C3.15144 8.48233 9.01247 2.66663 16.2427 2.66663C23.4738 2.66663 29.3337 8.48233 29.3337 15.6566ZM16.2427 4.73537C10.1734 4.73537 5.23647 9.63463 5.23647 15.6566C5.23647 18.0462 6.01544 20.2592 7.33307 22.0595L5.95796 26.1155L10.1876 24.7712C11.9254 25.9123 14.0071 26.5777 16.243 26.5777C22.3114 26.5777 27.2492 21.6791 27.2492 15.6571C27.2492 9.63522 22.3117 4.73537 16.2427 4.73537ZM22.8534 18.6483C22.7725 18.5158 22.5588 18.4358 22.2383 18.2767C21.9171 18.1176 20.339 17.3469 20.0457 17.2411C19.7514 17.1351 19.5369 17.0817 19.3233 17.4003C19.1097 17.7191 18.4945 18.4358 18.307 18.6483C18.1197 18.8613 17.9328 18.888 17.6116 18.7286C17.291 18.5694 16.2572 18.2328 15.0314 17.1484C14.0777 16.3046 13.4335 15.2628 13.2463 14.9437C13.0593 14.6251 13.2267 14.453 13.387 14.2945C13.5316 14.1517 13.7082 13.9226 13.8685 13.7368C14.0294 13.5508 14.0827 13.4183 14.1891 13.2056C14.2966 12.9931 14.243 12.8074 14.1624 12.6477C14.0824 12.4886 13.44 10.9217 13.1728 10.2841C12.9055 9.64707 12.6385 9.75314 12.451 9.75314C12.264 9.75314 12.0498 9.72648 11.8359 9.72648C11.622 9.72648 11.2741 9.80618 10.9799 10.1247C10.686 10.4435 9.85721 11.2139 9.85721 12.7804C9.85721 14.3472 11.0065 15.861 11.1674 16.0731C11.3277 16.2853 13.3867 19.605 16.6489 20.88C19.9114 22.1543 19.9114 21.7291 20.4999 21.6758C21.0877 21.6228 22.398 20.9057 22.6664 20.1626C22.9331 19.4183 22.9331 18.781 22.8534 18.6483Z" fill="#787A80"/>
</svg>
